<svg width="19" height="21" viewBox="0 0 19 21" fill="none" xmlns="http://www.w3.org/2000/svg">
<path fill-rule="evenodd" clip-rule="evenodd" d="M10.2252 0.525184C9.77738 0.0144869 9.00038 -0.0365132 8.48968 0.411272C7.97898 0.859057 7.92798 1.63606 8.37577 2.14676L14.6572 9.31065H1.22981C0.550606 9.31065 0 9.86126 0 10.5405C0 11.2197 0.550606 11.7703 1.22981 11.7703H14.6572L8.37577 18.9343C7.92798 19.445 7.97898 20.222 8.48968 20.6698C9.00038 21.1175 9.77738 21.0665 10.2252 20.5558L18.2958 11.3513C18.3096 11.3356 18.3228 11.3197 18.3356 11.3035C18.5017 11.0939 18.6009 10.8287 18.6009 10.5405C18.6009 10.2261 18.483 9.93923 18.2889 9.7218L10.2252 0.525184Z" fill="#4018B9"/>
</svg>
