<svg width="22" height="19" viewBox="0 0 22 19" fill="none" xmlns="http://www.w3.org/2000/svg">
<path fill-rule="evenodd" clip-rule="evenodd" d="M21.3158 10.359C21.8265 9.91117 21.8775 9.13416 21.4297 8.62347C20.9819 8.11277 20.2049 8.06177 19.6942 8.50956L12.5304 14.7909L12.5304 1.3636C12.5304 0.684395 11.9797 0.133789 11.3005 0.133789C10.6213 0.133789 10.0707 0.684395 10.0707 1.3636L10.0707 14.791L2.90673 8.50956C2.39603 8.06177 1.61903 8.11277 1.17125 8.62347C0.723461 9.13416 0.77446 9.91117 1.28516 10.359L10.4897 18.4296C10.5054 18.4433 10.5213 18.4566 10.5375 18.4694C10.7471 18.6355 11.0123 18.7347 11.3005 18.7347C11.6149 18.7347 11.9018 18.6167 12.1192 18.4226L21.3158 10.359Z" fill="#4018B9"/>
<path fill-rule="evenodd" clip-rule="evenodd" d="M21.3158 10.359C21.8265 9.91117 21.8775 9.13416 21.4297 8.62347C20.9819 8.11277 20.2049 8.06177 19.6942 8.50956L12.5304 14.7909L12.5304 1.3636C12.5304 0.684395 11.9797 0.133789 11.3005 0.133789C10.6213 0.133789 10.0707 0.684395 10.0707 1.3636L10.0707 14.791L2.90673 8.50956C2.39603 8.06177 1.61903 8.11277 1.17125 8.62347C0.723461 9.13416 0.77446 9.91117 1.28516 10.359L10.4897 18.4296C10.5054 18.4433 10.5213 18.4566 10.5375 18.4694C10.7471 18.6355 11.0123 18.7347 11.3005 18.7347C11.6149 18.7347 11.9018 18.6167 12.1192 18.4226L21.3158 10.359Z" fill="black" fill-opacity="0.2"/>
</svg>
