<svg width="35" height="33" viewBox="0 0 35 33" fill="none" xmlns="http://www.w3.org/2000/svg">
<path d="M6.82881 31.3905L21.9264 17.181L29.0312 24.2857M6.82881 31.3905H24.5907C27.5336 31.3905 29.9193 29.0048 29.9193 26.0619V17.181M6.82881 31.3905C3.88593 31.3905 1.50024 29.0048 1.50024 26.0619V8.30001C1.50024 5.35712 3.88593 2.97144 6.82881 2.97144H18.374M28.1431 11.5476L28.1431 6.52382M28.1431 6.52382L28.1431 1.5M28.1431 6.52382L23.1193 6.52382M28.1431 6.52382L33.1669 6.52382M12.1574 10.9643C12.1574 12.4357 10.9645 13.6286 9.4931 13.6286C8.02165 13.6286 6.82881 12.4357 6.82881 10.9643C6.82881 9.49285 8.02165 8.30001 9.4931 8.30001C10.9645 8.30001 12.1574 9.49285 12.1574 10.9643Z" stroke="black" stroke-width="3" stroke-linecap="round" stroke-linejoin="round"/>
</svg>
