<svg width="29" height="29" viewBox="0 0 29 29" fill="none" xmlns="http://www.w3.org/2000/svg">
<path d="M26.1249 26.1247H15.7915M2.229 26.7706L9.39681 24.0137C9.85527 23.8374 10.0845 23.7492 10.299 23.6341C10.4895 23.5318 10.6711 23.4138 10.8419 23.2813C11.0342 23.1321 11.2079 22.9584 11.5552 22.6111L26.1249 8.04141C27.5516 6.61467 27.5516 4.30148 26.1249 2.87474C24.6981 1.448 22.3849 1.448 20.9582 2.87474L6.38853 17.4444C6.0412 17.7917 5.86753 17.9654 5.7183 18.1577C5.58575 18.3285 5.46773 18.5101 5.36547 18.7006C5.25035 18.9151 5.16218 19.1443 4.98585 19.6028L2.229 26.7706ZM2.229 26.7706L4.88741 19.8588C5.07764 19.3642 5.17276 19.1169 5.3359 19.0036C5.47848 18.9046 5.65489 18.8672 5.82539 18.8998C6.02048 18.937 6.20783 19.1244 6.58254 19.4991L9.50054 22.4171C9.87525 22.7918 10.0626 22.9791 10.0999 23.1742C10.1324 23.3447 10.095 23.5211 9.99598 23.6637C9.88271 23.8269 9.6354 23.922 9.1408 24.1122L2.229 26.7706Z" stroke="black" stroke-width="2.5" stroke-linecap="round" stroke-linejoin="round"/>
</svg>
