<svg width="390" height="742" viewBox="0 0 390 742" fill="none" xmlns="http://www.w3.org/2000/svg">
<circle cx="40" cy="40" r="39" transform="matrix(-4.37114e-08 1 1 4.37114e-08 310 0)" stroke="black" stroke-width="2" stroke-dasharray="4 5"/>
<circle opacity="0.81" cx="32" cy="32" r="32" transform="matrix(1 0 0 -1 318 71.502)" fill="#4018B9"/>
<circle cx="37" cy="37" r="36" transform="matrix(-4.37114e-08 1 1 4.37114e-08 94 209)" stroke="black" stroke-width="2" stroke-dasharray="4 5"/>
<circle opacity="0.81" cx="26" cy="26" r="26" transform="matrix(1 0 0 -1 105 272)" fill="#FF8823"/>
<circle cx="30" cy="30" r="29" transform="matrix(-4.37114e-08 1 1 4.37114e-08 30 466.84)" stroke="black" stroke-width="2" stroke-dasharray="4 5"/>
<circle opacity="0.81" cx="21" cy="21" r="21" transform="matrix(1 0 0 -1 39 517.925)" fill="#4018B9"/>
<circle cx="30" cy="30" r="29" transform="matrix(-4.37114e-08 1 1 4.37114e-08 290 681.479)" stroke="black" stroke-width="2" stroke-dasharray="4 5"/>
<circle opacity="0.81" cx="21" cy="21" r="21" transform="matrix(1 0 0 -1 299 732.562)" fill="#FF7F2A"/>
<path opacity="0.33" d="M352.5 82C352.5 213 129.5 105.3 129.5 210.5" stroke="black" stroke-width="2" stroke-dasharray="4 4"/>
<path opacity="0.33" d="M133.713 281.456C133.713 312.347 134.076 346.935 118 372C99.1856 401.337 63.5006 421.512 63.5006 466" stroke="black" stroke-width="2" stroke-dasharray="4 4"/>
<path opacity="0.33" d="M296 694C244 594 153.5 654.587 98.9998 621C44.4998 587.413 59.0002 528.5 59.0002 528.5" stroke="black" stroke-width="2" stroke-dasharray="4 4"/>
</svg>
