<svg width="97" height="341" viewBox="0 0 97 341" fill="none" xmlns="http://www.w3.org/2000/svg">
<circle cx="13.4887" cy="13.4887" r="13.1515" transform="matrix(-4.37114e-08 1 1 4.37114e-08 69.3096 0)" stroke="black" stroke-width="0.674435" stroke-dasharray="1.35 1.69"/>
<circle opacity="0.81" cx="10.791" cy="10.791" r="10.791" transform="matrix(1 0 0 -1 72.0078 24.1113)" fill="#4018B9"/>
<circle cx="12.477" cy="12.477" r="12.1398" transform="matrix(-4.37114e-08 1 1 4.37114e-08 26.4033 120.477)" stroke="black" stroke-width="0.674435" stroke-dasharray="1.35 1.69"/>
<circle opacity="0.81" cx="8.76765" cy="8.76765" r="8.76765" transform="matrix(1 0 0 -1 30.1133 141.723)" fill="#FF8823"/>
<circle cx="10.1165" cy="10.1165" r="9.77931" transform="matrix(-4.37114e-08 1 1 4.37114e-08 35.8896 238.422)" stroke="black" stroke-width="0.674435" stroke-dasharray="1.35 1.69"/>
<circle opacity="0.81" cx="7.08157" cy="7.08157" r="7.08157" transform="matrix(1 0 0 -1 38.9238 255.646)" fill="#4018B9"/>
<circle cx="10.1165" cy="10.1165" r="9.77931" transform="matrix(-4.37114e-08 1 1 4.37114e-08 62.5664 319.805)" stroke="black" stroke-width="0.674435" stroke-dasharray="1.35 1.69"/>
<circle opacity="0.81" cx="7.08157" cy="7.08157" r="7.08157" transform="matrix(1 0 0 -1 65.6006 337.029)" fill="#FF7F2A"/>
<path opacity="0.33" d="M83.0003 27C83.0003 71.1755 18.4996 83 33.4997 121" stroke="black" stroke-width="0.674435" stroke-dasharray="1.35 1.35"/>
<path opacity="0.33" d="M45.5004 144C62.5 166.5 35.9995 171.001 30.4995 184.001C21.1918 206.001 52.2989 211.498 46.9997 238" stroke="black" stroke-width="0.674435" stroke-dasharray="1.35 1.35"/>
<path opacity="0.33" d="M72.9995 319.501C75.9799 296.473 47.9995 311.001 37.9996 294.001C27.9997 277 43.0002 257.501 43.0002 257.501" stroke="black" stroke-width="0.674435" stroke-dasharray="1.35 1.35"/>
</svg>
