<svg width="18" height="15" viewBox="0 0 18 15" fill="none" xmlns="http://www.w3.org/2000/svg">
<path d="M9.23005 13.3833H3.99951C3.13793 13.3833 2.70714 13.3833 2.37806 13.2156C2.0886 13.0681 1.85325 12.8328 1.70576 12.5433C1.53809 12.2143 1.53809 11.7835 1.53809 10.9219V3.5376C1.53809 2.67602 1.53809 2.24523 1.70576 1.91615C1.85325 1.62668 2.0886 1.39134 2.37806 1.24385C2.70714 1.07617 3.13793 1.07617 3.99951 1.07617H4.30719C6.03035 1.07617 6.89194 1.07617 7.5501 1.41152C8.12903 1.7065 8.59972 2.17719 8.8947 2.75613C9.23005 3.41429 9.23005 4.27587 9.23005 5.99903M9.23005 13.3833V5.99903M9.23005 13.3833H14.4606C15.3222 13.3833 15.753 13.3833 16.082 13.2156C16.3715 13.0681 16.6068 12.8328 16.7543 12.5433C16.922 12.2143 16.922 11.7835 16.922 10.9219V3.5376C16.922 2.67602 16.922 2.24523 16.7543 1.91615C16.6068 1.62668 16.3715 1.39134 16.082 1.24385C15.753 1.07617 15.3222 1.07617 14.4606 1.07617H14.1529C12.4297 1.07617 11.5682 1.07617 10.91 1.41152C10.3311 1.7065 9.86038 2.17719 9.5654 2.75613C9.23005 3.41429 9.23005 4.27587 9.23005 5.99903" stroke="#FF7F2A" stroke-width="1.5" stroke-linecap="round" stroke-linejoin="round"/>
</svg>
