<svg width="18" height="18" viewBox="0 0 18 18" fill="none" xmlns="http://www.w3.org/2000/svg">
<path d="M4.68746 8.63782C4.63965 8.3297 4.61484 8.01405 4.61484 7.69263C4.61484 4.29411 7.38802 1.53906 10.8089 1.53906C14.2298 1.53906 17.003 4.29411 17.003 7.69263C17.003 8.46035 16.8614 9.19522 16.6029 9.87292C16.5492 10.0137 16.5224 10.084 16.5102 10.139C16.4981 10.1934 16.4935 10.2317 16.4921 10.2875C16.4908 10.3437 16.4984 10.4057 16.5137 10.5297L16.8234 13.0451C16.8569 13.3174 16.8736 13.4536 16.8284 13.5525C16.7887 13.6393 16.7182 13.7082 16.6306 13.7458C16.5306 13.7888 16.3948 13.7689 16.1234 13.7291L13.6733 13.37C13.5454 13.3513 13.4814 13.3419 13.4231 13.3422C13.3655 13.3425 13.3256 13.3468 13.2692 13.3586C13.2122 13.3706 13.1394 13.3979 12.9937 13.4525C12.3143 13.707 11.578 13.8462 10.8089 13.8462C10.4872 13.8462 10.1713 13.8218 9.86284 13.7749M5.86988 16.923C8.15046 16.923 9.99925 15.0289 9.99925 12.6924C9.99925 10.3559 8.15046 8.46183 5.86988 8.46183C3.58929 8.46183 1.74051 10.3559 1.74051 12.6924C1.74051 13.1621 1.81521 13.6139 1.95311 14.036C2.0114 14.2144 2.04054 14.3036 2.05011 14.3646C2.06009 14.4282 2.06184 14.464 2.05812 14.5283C2.05456 14.5899 2.03915 14.6595 2.00833 14.7987L1.53809 16.923L3.84168 16.6084C3.96741 16.5912 4.03028 16.5826 4.08518 16.583C4.14298 16.5834 4.17367 16.5865 4.23036 16.5978C4.2842 16.6086 4.36424 16.6368 4.52431 16.6933C4.94608 16.8422 5.39877 16.923 5.86988 16.923Z" stroke="#FF7F2A" stroke-width="1.5" stroke-linecap="round" stroke-linejoin="round"/>
</svg>
