<svg width="15" height="18" viewBox="0 0 15 18" fill="none" xmlns="http://www.w3.org/2000/svg">
<path d="M10.3075 3.07746C11.0228 3.07746 11.3805 3.07746 11.674 3.15608C12.4703 3.36946 13.0923 3.99147 13.3057 4.7878C13.3843 5.08124 13.3843 5.43891 13.3843 6.15424V13.2308C13.3843 14.5232 13.3843 15.1694 13.1328 15.663C12.9115 16.0972 12.5585 16.4502 12.1243 16.6715C11.6307 16.923 10.9845 16.923 9.69215 16.923H4.76929C3.47692 16.923 2.83073 16.923 2.33711 16.6715C1.90291 16.4502 1.5499 16.0972 1.32866 15.663C1.07715 15.1694 1.07715 14.5232 1.07715 13.2308V6.15424C1.07715 5.43891 1.07715 5.08124 1.15578 4.7878C1.36915 3.99147 1.99116 3.36946 2.78749 3.15608C3.08094 3.07746 3.4386 3.07746 4.15393 3.07746M4.92313 11.5386L6.46152 13.077L9.92291 9.61563M5.38465 4.61585H9.07679C9.50758 4.61585 9.72298 4.61585 9.88752 4.53201C10.0323 4.45827 10.1499 4.34059 10.2237 4.19586C10.3075 4.03132 10.3075 3.81592 10.3075 3.38513V2.76978C10.3075 2.33899 10.3075 2.12359 10.2237 1.95905C10.1499 1.81432 10.0323 1.69665 9.88752 1.6229C9.72298 1.53906 9.50758 1.53906 9.07679 1.53906H5.38465C4.95386 1.53906 4.73846 1.53906 4.57392 1.6229C4.42919 1.69665 4.31152 1.81432 4.23777 1.95905C4.15393 2.12359 4.15393 2.33899 4.15393 2.76978V3.38513C4.15393 3.81592 4.15393 4.03132 4.23777 4.19586C4.31152 4.34059 4.42919 4.45827 4.57392 4.53201C4.73846 4.61585 4.95386 4.61585 5.38465 4.61585Z" stroke="#FF7F2A" stroke-width="1.5" stroke-linecap="round" stroke-linejoin="round"/>
</svg>
