<svg width="23" height="18" viewBox="0 0 23 18" fill="none" xmlns="http://www.w3.org/2000/svg">
<path d="M20.8273 14.6071L14.3923 8.79483M14.3923 8.79483L21.2849 3.97002M14.3923 8.79483L13.4022 9.48788M8.85684 8.79483L2.42189 14.6071M8.85684 8.79483L9.84692 9.48788M8.85684 8.79483L1.96426 3.97002M1.9375 3.95129L1.96426 3.97002M9.84692 9.48788C10.4874 9.93622 10.8076 10.1604 11.156 10.2472C11.4637 10.3239 11.7855 10.3239 12.0932 10.2472C12.4415 10.1604 12.7618 9.93622 13.4022 9.48788M9.84692 9.48788L1.96426 3.97002M13.4022 9.48788L21.2849 3.97002M21.3117 3.95129L21.2849 3.97002M21.2849 3.97002C21.3117 4.42333 21.3117 4.98081 21.3117 5.69496V11.8947C21.3117 13.5223 21.3117 14.3361 20.9949 14.9577C20.7163 15.5045 20.2717 15.9491 19.7249 16.2277C19.1032 16.5445 18.2894 16.5445 16.6619 16.5445H6.5873C4.95972 16.5445 4.14592 16.5445 3.52427 16.2277C2.97745 15.9491 2.53287 15.5045 2.25425 14.9577C1.9375 14.3361 1.9375 13.5223 1.9375 11.8947V5.69496C1.9375 4.98081 1.9375 4.42333 1.96426 3.97002M21.2849 3.97002C21.2507 3.39022 21.1727 2.98082 20.9949 2.63194C20.7163 2.08511 20.2717 1.64053 19.7249 1.36191C19.1032 1.04517 18.2894 1.04517 16.6619 1.04517H6.5873C4.95972 1.04517 4.14592 1.04517 3.52427 1.36191C2.97745 1.64053 2.53287 2.08511 2.25425 2.63194C2.07648 2.98082 1.99848 3.39022 1.96426 3.97002" stroke="#FF8823" stroke-width="2.02919" stroke-linecap="round" stroke-linejoin="round"/>
</svg>
