<svg width="19" height="21" viewBox="0 0 19 21" fill="none" xmlns="http://www.w3.org/2000/svg">
<path d="M16.125 11.3281V6.1625C16.125 4.63986 16.125 3.87854 15.8287 3.29696C15.568 2.7854 15.1521 2.36948 14.6405 2.10883C14.059 1.8125 13.2976 1.8125 11.775 1.8125H5.975C4.45236 1.8125 3.69104 1.8125 3.10946 2.10883C2.5979 2.36948 2.18198 2.7854 1.92133 3.29696C1.625 3.87854 1.625 4.63986 1.625 6.1625V15.5875C1.625 17.1101 1.625 17.8715 1.92133 18.453C2.18198 18.9646 2.5979 19.3805 3.10946 19.6412C3.69104 19.9375 4.45236 19.9375 5.975 19.9375H8.875M10.6875 9.96875H5.25M7.0625 13.5938H5.25M12.5 6.34375H5.25M11.1406 17.2188L12.9531 19.0312L17.0312 14.9531" stroke="#FF8823" stroke-width="2" stroke-linecap="round" stroke-linejoin="round"/>
</svg>
