<svg width="23" height="23" viewBox="0 0 23 23" fill="none" xmlns="http://www.w3.org/2000/svg">
<path fill-rule="evenodd" clip-rule="evenodd" d="M6.67453 0.429443H15.787C19.7452 0.429443 22.1048 2.78912 22.094 6.74728V15.8598C22.094 19.8179 19.7343 22.1776 15.7761 22.1776H6.67453C2.71636 22.1776 0.356689 19.8179 0.356689 15.8489V6.74728C0.356689 2.78912 2.71636 0.429443 6.67453 0.429443ZM13.1773 2.60452H15.7871V6.08423H13.1773C12.9466 6.08423 12.7254 6.17588 12.5622 6.33902C12.3991 6.50216 12.3074 6.72343 12.3074 6.95415V9.56392H15.7871L14.9172 13.0436H12.3074V20.003H8.82772V13.0436H6.21794V9.56392H8.82772V6.95415C8.82772 5.80056 9.28598 4.69421 10.1017 3.8785C10.9174 3.06278 12.0238 2.60452 13.1773 2.60452Z" fill="#FF8823"/>
</svg>
