<svg width="22" height="22" viewBox="0 0 22 22" fill="none" xmlns="http://www.w3.org/2000/svg">
<path d="M15.4303 0.240723H6.31784C2.35968 0.240723 0 2.6004 0 6.55856V15.6602C0 19.6292 2.35968 21.9889 6.31784 21.9889H15.4194C19.3776 21.9889 21.7373 19.6292 21.7373 15.671V6.55856C21.7482 2.6004 19.3885 0.240723 15.4303 0.240723ZM10.8741 15.3339C8.54703 15.3339 6.65494 13.4419 6.65494 11.1148C6.65494 8.78775 8.54703 6.89566 10.8741 6.89566C13.2011 6.89566 15.0932 8.78775 15.0932 11.1148C15.0932 13.4419 13.2011 15.3339 10.8741 15.3339ZM17.3115 5.54727C17.2572 5.67776 17.181 5.79738 17.0832 5.90612C16.9744 6.00398 16.8548 6.0801 16.7243 6.13447C16.5938 6.18884 16.4525 6.22147 16.3111 6.22147C16.0175 6.22147 15.7457 6.11273 15.5391 5.90612C15.4412 5.79738 15.3651 5.67776 15.3107 5.54727C15.2563 5.41678 15.2237 5.27542 15.2237 5.13406C15.2237 4.9927 15.2563 4.85133 15.3107 4.72084C15.3651 4.57948 15.4412 4.47074 15.5391 4.362C15.7892 4.11189 16.1698 3.99228 16.5177 4.0684C16.5938 4.07927 16.6591 4.10102 16.7243 4.13364C16.7896 4.15539 16.8548 4.18801 16.9201 4.23151C16.9744 4.26413 17.0288 4.3185 17.0832 4.362C17.181 4.47074 17.2572 4.57948 17.3115 4.72084C17.3659 4.85133 17.3985 4.9927 17.3985 5.13406C17.3985 5.27542 17.3659 5.41678 17.3115 5.54727Z" fill="#FF8823"/>
</svg>
