<svg width="25" height="24" viewBox="0 0 25 24" fill="none" xmlns="http://www.w3.org/2000/svg">
<path d="M8.28518 8.41423C9.08775 10.0858 10.1818 11.6525 11.5674 13.0381C12.9529 14.4236 14.5196 15.5177 16.1912 16.3203C16.335 16.3893 16.4069 16.4238 16.4978 16.4503C16.8211 16.5446 17.2181 16.4769 17.4919 16.2808C17.5689 16.2257 17.6348 16.1597 17.7666 16.0279C18.1698 15.6248 18.3713 15.4232 18.574 15.2914C19.3384 14.7945 20.3239 14.7945 21.0883 15.2914C21.291 15.4232 21.4925 15.6248 21.8957 16.0279L22.1204 16.2526C22.7332 16.8655 23.0396 17.1719 23.206 17.5009C23.5371 18.1554 23.5371 18.9283 23.206 19.5828C23.0396 19.9118 22.7332 20.2183 22.1204 20.8311L21.9386 21.0128C21.3279 21.6236 21.0225 21.9289 20.6074 22.1621C20.1467 22.4209 19.4312 22.607 18.9028 22.6054C18.4266 22.604 18.1012 22.5116 17.4503 22.3269C13.9524 21.3341 10.6518 19.4609 7.89817 16.7073C5.14455 13.9536 3.27133 10.653 2.27853 7.15512C2.0938 6.50425 2.00143 6.17881 2.00001 5.70263C1.99844 5.17425 2.18451 4.45875 2.44329 3.99807C2.67651 3.58291 2.98187 3.27755 3.59258 2.66683L3.77436 2.48506C4.38717 1.87225 4.69358 1.56584 5.02266 1.39939C5.67712 1.06837 6.45002 1.06837 7.10448 1.39939C7.43356 1.56584 7.73997 1.87225 8.35279 2.48506L8.57749 2.70977C8.98063 3.11291 9.1822 3.31448 9.31399 3.51717C9.81097 4.28156 9.81097 5.26699 9.31399 6.03139C9.1822 6.23408 8.98063 6.43565 8.5775 6.83879C8.44568 6.9706 8.37977 7.03651 8.32461 7.11355C8.12856 7.38734 8.06087 7.78431 8.15511 8.10759C8.18163 8.19856 8.21614 8.27045 8.28518 8.41423Z" stroke="#FF8823" stroke-width="2.02919" stroke-linecap="round" stroke-linejoin="round"/>
</svg>
