<svg width="22" height="22" viewBox="0 0 22 22" fill="none" xmlns="http://www.w3.org/2000/svg">
<mask id="path-1-inside-1_1643_11174" fill="white">
<path d="M21.7303 10.2317C21.3606 3.92551 15.6307 -0.934561 9.031 0.152707C4.48622 0.902921 0.843885 4.58874 0.137161 9.13351C-0.276001 11.7647 0.267657 14.2546 1.45278 16.3095L0.485095 19.9083C0.267641 20.7238 1.01783 21.4631 1.82241 21.2348L5.36691 20.2563C6.97607 21.2022 8.85704 21.7458 10.8685 21.7458C17.0007 21.7458 22.0891 16.3421 21.7303 10.2317ZM16.1852 14.9178C16.0874 15.1135 15.9678 15.2983 15.8155 15.4723C15.5437 15.7659 15.2502 15.9833 14.924 16.1138C14.5978 16.2551 14.239 16.3204 13.8585 16.3204C13.304 16.3204 12.706 16.1899 12.0862 15.9181C11.4556 15.6463 10.8359 15.2874 10.2162 14.8417C9.58554 14.385 8.9984 13.874 8.43302 13.3195C7.86764 12.7541 7.36747 12.1561 6.91082 11.5364C6.46504 10.9166 6.10626 10.2969 5.84531 9.67715C5.58437 9.05741 5.45391 8.45943 5.45391 7.89405C5.45391 7.52438 5.51914 7.16558 5.64961 6.8394C5.78009 6.50234 5.98669 6.19791 6.28025 5.92609C6.62817 5.57817 7.00869 5.41508 7.41098 5.41508C7.5632 5.41508 7.71539 5.44769 7.85673 5.51293C7.99808 5.57816 8.12858 5.67602 8.22643 5.81736L9.48763 7.60046C9.58549 7.74181 9.66161 7.86141 9.7051 7.98101C9.75946 8.10061 9.78122 8.20934 9.78122 8.31806C9.78122 8.44853 9.73774 8.57903 9.66163 8.7095C9.58553 8.83997 9.48764 8.97043 9.35717 9.1009L8.944 9.5358C8.87876 9.60103 8.85707 9.66628 8.85707 9.75326C8.85707 9.79676 8.86789 9.84024 8.87877 9.88373C8.90051 9.92722 8.91143 9.95985 8.9223 9.99247C9.02015 10.1773 9.19408 10.4056 9.43328 10.6883C9.68336 10.971 9.94435 11.2646 10.227 11.5472C10.5206 11.8408 10.8033 12.1017 11.0968 12.3518C11.3795 12.591 11.6187 12.7541 11.8035 12.852C11.8361 12.8629 11.8688 12.8846 11.9014 12.8955C11.9449 12.9172 11.9884 12.9172 12.0428 12.9172C12.1406 12.9172 12.2059 12.8846 12.2711 12.8194L12.6842 12.4062C12.8255 12.2649 12.9561 12.167 13.0757 12.1018C13.2061 12.0257 13.3257 11.9822 13.4671 11.9822C13.5758 11.9822 13.6845 12.0039 13.8041 12.0583C13.9237 12.1126 14.0542 12.1779 14.1846 12.2757L15.9895 13.5587C16.1309 13.6566 16.2287 13.7762 16.2939 13.9066C16.3483 14.048 16.3809 14.1784 16.3809 14.3307C16.3157 14.5155 16.2722 14.7221 16.1852 14.9178Z"/>
</mask>
<path d="M21.7303 10.2317C21.3606 3.92551 15.6307 -0.934561 9.031 0.152707C4.48622 0.902921 0.843885 4.58874 0.137161 9.13351C-0.276001 11.7647 0.267657 14.2546 1.45278 16.3095L0.485095 19.9083C0.267641 20.7238 1.01783 21.4631 1.82241 21.2348L5.36691 20.2563C6.97607 21.2022 8.85704 21.7458 10.8685 21.7458C17.0007 21.7458 22.0891 16.3421 21.7303 10.2317ZM16.1852 14.9178C16.0874 15.1135 15.9678 15.2983 15.8155 15.4723C15.5437 15.7659 15.2502 15.9833 14.924 16.1138C14.5978 16.2551 14.239 16.3204 13.8585 16.3204C13.304 16.3204 12.706 16.1899 12.0862 15.9181C11.4556 15.6463 10.8359 15.2874 10.2162 14.8417C9.58554 14.385 8.9984 13.874 8.43302 13.3195C7.86764 12.7541 7.36747 12.1561 6.91082 11.5364C6.46504 10.9166 6.10626 10.2969 5.84531 9.67715C5.58437 9.05741 5.45391 8.45943 5.45391 7.89405C5.45391 7.52438 5.51914 7.16558 5.64961 6.8394C5.78009 6.50234 5.98669 6.19791 6.28025 5.92609C6.62817 5.57817 7.00869 5.41508 7.41098 5.41508C7.5632 5.41508 7.71539 5.44769 7.85673 5.51293C7.99808 5.57816 8.12858 5.67602 8.22643 5.81736L9.48763 7.60046C9.58549 7.74181 9.66161 7.86141 9.7051 7.98101C9.75946 8.10061 9.78122 8.20934 9.78122 8.31806C9.78122 8.44853 9.73774 8.57903 9.66163 8.7095C9.58553 8.83997 9.48764 8.97043 9.35717 9.1009L8.944 9.5358C8.87876 9.60103 8.85707 9.66628 8.85707 9.75326C8.85707 9.79676 8.86789 9.84024 8.87877 9.88373C8.90051 9.92722 8.91143 9.95985 8.9223 9.99247C9.02015 10.1773 9.19408 10.4056 9.43328 10.6883C9.68336 10.971 9.94435 11.2646 10.227 11.5472C10.5206 11.8408 10.8033 12.1017 11.0968 12.3518C11.3795 12.591 11.6187 12.7541 11.8035 12.852C11.8361 12.8629 11.8688 12.8846 11.9014 12.8955C11.9449 12.9172 11.9884 12.9172 12.0428 12.9172C12.1406 12.9172 12.2059 12.8846 12.2711 12.8194L12.6842 12.4062C12.8255 12.2649 12.9561 12.167 13.0757 12.1018C13.2061 12.0257 13.3257 11.9822 13.4671 11.9822C13.5758 11.9822 13.6845 12.0039 13.8041 12.0583C13.9237 12.1126 14.0542 12.1779 14.1846 12.2757L15.9895 13.5587C16.1309 13.6566 16.2287 13.7762 16.2939 13.9066C16.3483 14.048 16.3809 14.1784 16.3809 14.3307C16.3157 14.5155 16.2722 14.7221 16.1852 14.9178Z" stroke="#FF8823" stroke-width="3" mask="url(#path-1-inside-1_1643_11174)"/>
</svg>
