<svg width="22" height="23" viewBox="0 0 22 23" fill="none" xmlns="http://www.w3.org/2000/svg">
<path d="M21.7303 10.5664C21.3606 4.26023 15.6307 -0.599844 9.031 0.487424C4.48622 1.23764 0.843885 4.92345 0.137161 9.46823C-0.276001 12.0994 0.267657 14.5893 1.45278 16.6442L0.485095 20.2431C0.267641 21.0585 1.01783 21.7978 1.82241 21.5695L5.36691 20.591C6.97607 21.5369 8.85704 22.0805 10.8685 22.0805C17.0007 22.0805 22.0891 16.6768 21.7303 10.5664ZM16.1852 15.2525C16.0874 15.4482 15.9678 15.6331 15.8155 15.807C15.5437 16.1006 15.2502 16.318 14.924 16.4485C14.5978 16.5898 14.239 16.6551 13.8585 16.6551C13.304 16.6551 12.706 16.5246 12.0862 16.2528C11.4556 15.981 10.8359 15.6222 10.2162 15.1764C9.58554 14.7197 8.9984 14.2087 8.43302 13.6542C7.86764 13.0888 7.36747 12.4908 6.91082 11.8711C6.46504 11.2513 6.10626 10.6316 5.84531 10.0119C5.58437 9.39212 5.45391 8.79414 5.45391 8.22876C5.45391 7.85909 5.51914 7.50029 5.64961 7.17411C5.78009 6.83706 5.98669 6.53263 6.28025 6.26081C6.62817 5.91289 7.00869 5.74979 7.41098 5.74979C7.5632 5.74979 7.71539 5.78241 7.85673 5.84764C7.99808 5.91288 8.12858 6.01073 8.22643 6.15208L9.48763 7.93518C9.58549 8.07652 9.66161 8.19613 9.7051 8.31573C9.75946 8.43533 9.78122 8.54405 9.78122 8.65278C9.78122 8.78325 9.73774 8.91374 9.66163 9.04421C9.58553 9.17469 9.48764 9.30514 9.35717 9.43561L8.944 9.87051C8.87876 9.93575 8.85707 10.001 8.85707 10.088C8.85707 10.1315 8.86789 10.175 8.87877 10.2184C8.90051 10.2619 8.91143 10.2946 8.9223 10.3272C9.02015 10.512 9.19409 10.7403 9.43328 11.023C9.68336 11.3057 9.94434 11.5993 10.227 11.882C10.5206 12.1755 10.8033 12.4365 11.0968 12.6865C11.3795 12.9257 11.6187 13.0888 11.8035 13.1867C11.8361 13.1976 11.8688 13.2193 11.9014 13.2302C11.9449 13.2519 11.9884 13.2519 12.0428 13.2519C12.1406 13.2519 12.2059 13.2193 12.2711 13.1541L12.6842 12.7409C12.8255 12.5996 12.9561 12.5017 13.0757 12.4365C13.2061 12.3604 13.3257 12.3169 13.4671 12.3169C13.5758 12.3169 13.6845 12.3386 13.8041 12.393C13.9237 12.4473 14.0542 12.5126 14.1846 12.6104L15.9895 13.8934C16.1309 13.9913 16.2287 14.1109 16.2939 14.2414C16.3483 14.3827 16.3809 14.5132 16.3809 14.6654C16.3157 14.8502 16.2722 15.0568 16.1852 15.2525Z" fill="#FF8823"/>
</svg>
