<svg width="38" height="30" viewBox="0 0 38 30" fill="none" xmlns="http://www.w3.org/2000/svg">
<path d="M34.833 25.0003L23.7616 15.0003M14.2378 15.0003L3.1664 25.0003M2.33301 6.66699L15.9412 16.1927C17.0432 16.9641 17.5941 17.3498 18.1934 17.4992C18.7228 17.6311 19.2765 17.6311 19.8059 17.4992C20.4052 17.3498 20.9562 16.9641 22.0581 16.1927L35.6663 6.66699M10.333 28.3337H27.6663C30.4666 28.3337 31.8667 28.3337 32.9363 27.7887C33.8771 27.3093 34.642 26.5444 35.1214 25.6036C35.6663 24.5341 35.6663 23.1339 35.6663 20.3337V9.66699C35.6663 6.86673 35.6663 5.4666 35.1214 4.39704C34.642 3.45623 33.8771 2.69133 32.9363 2.21196C31.8667 1.66699 30.4666 1.66699 27.6663 1.66699H10.333C7.53275 1.66699 6.13261 1.66699 5.06306 2.21196C4.12225 2.69133 3.35734 3.45623 2.87798 4.39704C2.33301 5.4666 2.33301 6.86673 2.33301 9.66699V20.3337C2.33301 23.1339 2.33301 24.5341 2.87798 25.6036C3.35734 26.5444 4.12225 27.3093 5.06306 27.7887C6.13261 28.3337 7.53275 28.3337 10.333 28.3337Z" stroke="black" stroke-width="3" stroke-linecap="round" stroke-linejoin="round"/>
</svg>
